<?xml version="1.0" encoding="UTF-8" standalone="no"?>
<!DOCTYPE svg PUBLIC "-//W3C//DTD SVG 1.1//EN" "http://www.w3.org/Graphics/SVG/1.1/DTD/svg11.dtd">
<svg width="100%" height="100%" viewBox="0 0 1080 1080" version="1.1" xmlns="http://www.w3.org/2000/svg" xmlns:xlink="http://www.w3.org/1999/xlink" xml:space="preserve" xmlns:serif="http://www.serif.com/" style="fill-rule:evenodd;clip-rule:evenodd;stroke-linejoin:round;stroke-miterlimit:2;">
    <g>
        <path d="M480.946,403.751L480.827,489.521L367.204,489.521L367.204,197.529L484.698,197.529L484.698,264.574L480.449,264.574L480.449,319.089L442.602,319.089L418.373,401.806L480.449,401.62L480.449,403.751L480.946,403.751Z" style="fill:white;fill-opacity:0.5;"/>
        <g transform="matrix(2.05396,0,0,2.05396,-396.812,-569.139)">
            <path d="M427.108,432.447L408.682,432.447L407.843,435.309L400.745,435.293L412.35,373.264L540,373.264L540.229,659.769C540.229,659.769 540.602,705.259 496.665,706.736L414.001,706.736C414.001,706.736 374.198,707.803 372.084,663.821L371.973,514.476L427.293,514.476L427.108,648.528L473.331,648.529L473.323,473.666L473.33,473.666L473.33,472.673L503.632,472.671L492.381,432.447L473.33,432.447L473.33,405.906L427.108,405.906L427.108,432.447ZM451.661,691.363L457.309,691.363L457.309,663.13L451.661,663.13L451.661,691.363ZM449.947,663.13L444.377,663.13L442.196,673.06L440.093,663.13L434.484,663.13L438.34,676.643L434.329,691.363L440.054,691.363L442.196,681.433L444.377,691.363L450.103,691.363L446.091,676.643L449.947,663.13ZM459.762,691.363L465.41,691.363L465.41,663.13L459.762,663.13L459.762,691.363Z" style="fill:white;"/>
        </g>
    </g>
</svg>
