<?xml version="1.0" encoding="UTF-8" standalone="no"?>
<!DOCTYPE svg PUBLIC "-//W3C//DTD SVG 1.1//EN" "http://www.w3.org/Graphics/SVG/1.1/DTD/svg11.dtd">
<svg width="100%" height="100%" viewBox="0 0 1920 1080" version="1.1" xmlns="http://www.w3.org/2000/svg" xmlns:xlink="http://www.w3.org/1999/xlink" xml:space="preserve" xmlns:serif="http://www.serif.com/" style="fill-rule:evenodd;clip-rule:evenodd;stroke-linecap:round;stroke-linejoin:round;stroke-miterlimit:1.5;">
    <rect x="0" y="0" width="1918.75" height="1080"/>
    <g transform="matrix(0.337065,0.967918,-0.982252,0.342056,725.297,-745.533)">
        <path d="M-443.848,444.634L-443.848,605.399M-294.091,269.483L-294.091,430.248M-443.848,444.634L-294.091,269.483M-593.606,392.429L-443.848,217.278M-443.848,605.399L-294.091,430.248M-443.848,444.634L-593.606,392.429M-294.091,269.483L-443.848,217.278M-593.606,392.429L-593.606,553.194M-443.848,605.399L-593.606,553.194M-294.091,496.829L-294.091,657.594M-144.334,321.678L-144.334,482.443M-294.091,496.829L-144.334,321.678M-443.848,444.624L-294.091,269.473M-294.091,657.594L-144.334,482.443M-294.091,496.829L-443.848,444.624M-144.334,321.678L-294.091,269.473M-443.848,444.624L-443.848,605.389M-294.091,657.594L-443.848,605.389M-144.334,548.906L-144.334,709.671M5.424,373.755L5.424,534.519M-144.334,548.906L5.424,373.755M-294.091,496.701L-144.334,321.55M-144.334,709.671L5.424,534.519M-144.334,548.906L-294.091,496.701M5.424,373.755L-144.334,321.55M-294.091,496.701L-294.091,657.466M-144.334,709.671L-294.091,657.466M5.424,601.1L5.424,761.865M155.181,425.949L155.181,586.714M5.424,601.1L155.181,425.949M-144.334,548.896L5.424,373.745M5.424,761.865L155.181,586.714M5.424,601.1L-144.334,548.896M155.181,425.949L5.424,373.745M-144.334,548.896L-144.334,709.661M5.424,761.865L-144.334,709.661M155.181,653.31L155.181,814.075M304.938,478.159L304.938,638.924M155.181,653.31L304.938,478.159M5.424,601.105L155.181,425.954M155.181,814.075L304.938,638.924M155.181,653.31L5.424,601.105M304.938,478.159L155.181,425.954M5.424,601.105L5.424,761.87M155.181,814.075L5.424,761.87M304.938,705.505L304.938,866.27M454.696,530.354L454.696,691.119M304.938,705.505L454.696,530.354M155.181,653.3L304.938,478.149M304.938,866.27L454.696,691.119M304.938,705.505L155.181,653.3M454.696,530.354L304.938,478.149M155.181,653.3L155.181,814.065M304.938,866.27L155.181,814.065M454.696,757.582L454.696,918.347M604.453,582.431L604.453,743.196M454.696,757.582L604.453,582.431M304.938,705.377L454.696,530.226M454.696,918.347L604.453,743.196M454.696,757.582L304.938,705.377M604.453,582.431L454.696,530.226M304.938,705.377L304.938,866.142M454.696,918.347L304.938,866.142M604.453,809.777L604.453,970.542M754.21,634.625L754.21,795.39M604.453,809.777L754.21,634.625M454.696,757.572L604.453,582.421M604.453,970.542L754.21,795.39M604.453,809.777L454.696,757.572M754.21,634.625L604.453,582.421M454.696,757.572L454.696,918.337M604.453,970.542L454.696,918.337M753.721,861.814L753.721,1022.58M903.479,686.663L903.479,847.428M753.721,861.814L903.479,686.663M603.964,809.61L753.721,634.458M753.721,1022.58L903.479,847.428M753.721,861.814L603.964,809.61M903.479,686.663L753.721,634.458M603.964,809.61L603.964,970.375M753.721,1022.58L603.964,970.375M903.479,914.009L903.479,1074.77M1053.24,738.858L1053.24,899.623M903.479,914.009L1053.24,738.858M753.721,861.804L903.479,686.653M903.479,1074.77L1053.24,899.623M903.479,914.009L753.721,861.804M1053.24,738.858L903.479,686.653M753.721,861.804L753.721,1022.57M903.479,1074.77L753.721,1022.57M1053.24,966.086L1053.24,1126.85M1202.99,790.935L1202.99,951.7M1053.24,966.086L1202.99,790.935M903.479,913.881L1053.24,738.73M1053.24,1126.85L1202.99,951.7M1053.24,966.086L903.479,913.881M1202.99,790.935L1053.24,738.73M903.479,913.881L903.479,1074.65M1053.24,1126.85L903.479,1074.65M1202.99,1018.28L1202.99,1179.05M1352.75,843.13L1352.75,1003.89M1202.99,1018.28L1352.75,843.13M1053.24,966.076L1202.99,790.925M1202.99,1179.05L1352.75,1003.89M1202.99,1018.28L1053.24,966.076M1352.75,843.13L1202.99,790.925M1053.24,966.076L1053.24,1126.84M1202.99,1179.05L1053.24,1126.84M1352.75,1070.49L1352.75,1231.26M1502.51,895.339L1502.51,1056.1M1352.75,1070.49L1502.51,895.339M1202.99,1018.29L1352.75,843.135M1352.75,1231.26L1502.51,1056.1M1352.75,1070.49L1202.99,1018.29M1502.51,895.339L1352.75,843.135M1202.99,1018.29L1202.99,1179.05M1352.75,1231.26L1202.99,1179.05M1502.51,1122.68L1502.51,1283.45M1652.27,947.534L1652.27,1108.3M1502.51,1122.68L1652.27,947.534M1352.75,1070.48L1502.51,895.329M1502.51,1283.45L1652.27,1108.3M1502.51,1122.68L1352.75,1070.48M1652.27,947.534L1502.51,895.329M1352.75,1070.48L1352.75,1231.25M1502.51,1283.45L1352.75,1231.25M1652.27,1174.76L1652.27,1335.53M1802.02,999.611L1802.02,1160.38M1652.27,1174.76L1802.02,999.611M1502.51,1122.56L1652.27,947.406M1652.27,1335.53L1802.02,1160.38M1652.27,1174.76L1502.51,1122.56M1802.02,999.611L1652.27,947.406M1502.51,1122.56L1502.51,1283.32M1652.27,1335.53L1502.51,1283.32M1802.02,1226.96L1802.02,1387.72M1951.78,1051.81L1951.78,1212.57M1802.02,1226.96L1951.78,1051.81M1652.27,1174.75L1802.02,999.601M1802.02,1387.72L1951.78,1212.57M1802.02,1226.96L1652.27,1174.75M1951.78,1051.81L1802.02,999.601M1652.27,1174.75L1652.27,1335.52M1802.02,1387.72L1652.27,1335.52M-293.848,269.634L-293.848,430.399M-144.091,94.483L-144.091,255.248M-293.848,269.634L-144.091,94.483M-443.606,217.429L-293.848,42.278M-293.848,430.399L-144.091,255.248M-293.848,269.634L-443.606,217.429M-144.091,94.483L-293.848,42.278M-443.606,217.429L-443.606,378.194M-293.848,430.399L-443.606,378.194M-144.091,321.829L-144.091,482.594M5.666,146.678L5.666,307.443M-144.091,321.829L5.666,146.678M-293.848,269.624L-144.091,94.473M-144.091,482.594L5.666,307.443M-144.091,321.829L-293.848,269.624M5.666,146.678L-144.091,94.473M-293.848,269.624L-293.848,430.389M-144.091,482.594L-293.848,430.389M5.666,373.906L5.666,534.671M155.424,198.755L155.424,359.519M5.666,373.906L155.424,198.755M-144.091,321.701L5.666,146.55M5.666,534.671L155.424,359.519M5.666,373.906L-144.091,321.701M155.424,198.755L5.666,146.55M-144.091,321.701L-144.091,482.466M5.666,534.671L-144.091,482.466M155.424,426.1L155.424,586.865M305.181,250.949L305.181,411.714M155.424,426.1L305.181,250.949M5.666,373.896L155.424,198.745M155.424,586.865L305.181,411.714M155.424,426.1L5.666,373.896M305.181,250.949L155.424,198.745M5.666,373.896L5.666,534.661M155.424,586.865L5.666,534.661M305.181,478.31L305.181,639.075M454.938,303.159L454.938,463.924M305.181,478.31L454.938,303.159M155.424,426.105L305.181,250.954M305.181,639.075L454.938,463.924M305.181,478.31L155.424,426.105M454.938,303.159L305.181,250.954M155.424,426.105L155.424,586.87M305.181,639.075L155.424,586.87M454.938,530.505L454.938,691.27M604.696,355.354L604.696,516.119M454.938,530.505L604.696,355.354M305.181,478.3L454.938,303.149M454.938,691.27L604.696,516.119M454.938,530.505L305.181,478.3M604.696,355.354L454.938,303.149M305.181,478.3L305.181,639.065M454.938,691.27L305.181,639.065M604.696,582.582L604.696,743.347M754.453,407.431L754.453,568.196M604.696,582.582L754.453,407.431M454.938,530.377L604.696,355.226M604.696,743.347L754.453,568.196M604.696,582.582L454.938,530.377M754.453,407.431L604.696,355.226M454.938,530.377L454.938,691.142M604.696,743.347L454.938,691.142M754.453,634.777L754.453,795.542M904.21,459.625L904.21,620.39M754.453,634.777L904.21,459.625M604.696,582.572L754.453,407.421M754.453,795.542L904.21,620.39M754.453,634.777L604.696,582.572M904.21,459.625L754.453,407.421M604.696,582.572L604.696,743.337M754.453,795.542L604.696,743.337M903.721,686.814L903.721,847.579M1053.48,511.663L1053.48,672.428M903.721,686.814L1053.48,511.663M753.964,634.61L903.721,459.458M903.721,847.579L1053.48,672.428M903.721,686.814L753.964,634.61M1053.48,511.663L903.721,459.458M753.964,634.61L753.964,795.375M903.721,847.579L753.964,795.375M1053.48,739.009L1053.48,899.774M1203.24,563.858L1203.24,724.623M1053.48,739.009L1203.24,563.858M903.721,686.804L1053.48,511.653M1053.48,899.774L1203.24,724.623M1053.48,739.009L903.721,686.804M1203.24,563.858L1053.48,511.653M903.721,686.804L903.721,847.569M1053.48,899.774L903.721,847.569M1203.24,791.086L1203.24,951.851M1352.99,615.935L1352.99,776.7M1203.24,791.086L1352.99,615.935M1053.48,738.881L1203.24,563.73M1203.24,951.851L1352.99,776.7M1203.24,791.086L1053.48,738.881M1352.99,615.935L1203.24,563.73M1053.48,738.881L1053.48,899.646M1203.24,951.851L1053.48,899.646M1352.99,843.281L1352.99,1004.05M1502.75,668.13L1502.75,828.895M1352.99,843.281L1502.75,668.13M1203.24,791.076L1352.99,615.925M1352.99,1004.05L1502.75,828.895M1352.99,843.281L1203.24,791.076M1502.75,668.13L1352.99,615.925M1203.24,791.076L1203.24,951.841M1352.99,1004.05L1203.24,951.841M1502.75,895.491L1502.75,1056.26M1652.51,720.339L1652.51,881.104M1502.75,895.491L1652.51,720.339M1352.99,843.286L1502.75,668.135M1502.75,1056.26L1652.51,881.104M1502.75,895.491L1352.99,843.286M1652.51,720.339L1502.75,668.135M1352.99,843.286L1352.99,1004.05M1502.75,1056.26L1352.99,1004.05M1652.51,947.685L1652.51,1108.45M1802.27,772.534L1802.27,933.299M1652.51,947.685L1802.27,772.534M1502.75,895.481L1652.51,720.329M1652.51,1108.45L1802.27,933.299M1652.51,947.685L1502.75,895.481M1802.27,772.534L1652.51,720.329M1502.75,895.481L1502.75,1056.25M1652.51,1108.45L1502.75,1056.25M1802.27,999.762L1802.27,1160.53M1952.02,824.611L1952.02,985.376M1802.27,999.762L1952.02,824.611M1652.51,947.557L1802.27,772.406M1802.27,1160.53L1952.02,985.376M1802.27,999.762L1652.51,947.557M1952.02,824.611L1802.27,772.406M1652.51,947.557L1652.51,1108.32M1802.27,1160.53L1652.51,1108.32M1952.02,1051.96L1952.02,1212.72M2101.78,876.806L2101.78,1037.57M1952.02,1051.96L2101.78,876.806M1802.27,999.752L1952.02,824.601M1952.02,1212.72L2101.78,1037.57M1952.02,1051.96L1802.27,999.752M2101.78,876.806L1952.02,824.601M1802.27,999.752L1802.27,1160.52M1952.02,1212.72L1802.27,1160.52M-143.848,94.634L-143.848,255.399M5.909,-80.517L5.909,80.248M-143.848,94.634L5.909,-80.517M-293.606,42.429L-143.848,-132.722M-143.848,255.399L5.909,80.248M-143.848,94.634L-293.606,42.429M5.909,-80.517L-143.848,-132.722M-293.606,42.429L-293.606,203.194M-143.848,255.399L-293.606,203.194M5.909,146.829L5.909,307.594M155.666,-28.322L155.666,132.443M5.909,146.829L155.666,-28.322M-143.848,94.624L5.909,-80.527M5.909,307.594L155.666,132.443M5.909,146.829L-143.848,94.624M155.666,-28.322L5.909,-80.527M-143.848,94.624L-143.848,255.389M5.909,307.594L-143.848,255.389M155.666,198.906L155.666,359.671M305.424,23.755L305.424,184.519M155.666,198.906L305.424,23.755M5.909,146.701L155.666,-28.45M155.666,359.671L305.424,184.519M155.666,198.906L5.909,146.701M305.424,23.755L155.666,-28.45M5.909,146.701L5.909,307.466M155.666,359.671L5.909,307.466M305.424,251.1L305.424,411.865M455.181,75.949L455.181,236.714M305.424,251.1L455.181,75.949M155.666,198.896L305.424,23.745M305.424,411.865L455.181,236.714M305.424,251.1L155.666,198.896M455.181,75.949L305.424,23.745M155.666,198.896L155.666,359.661M305.424,411.865L155.666,359.661M455.181,303.31L455.181,464.075M604.938,128.159L604.938,288.924M455.181,303.31L604.938,128.159M305.424,251.105L455.181,75.954M455.181,464.075L604.938,288.924M455.181,303.31L305.424,251.105M604.938,128.159L455.181,75.954M305.424,251.105L305.424,411.87M455.181,464.075L305.424,411.87M604.938,355.505L604.938,516.27M754.696,180.354L754.696,341.119M604.938,355.505L754.696,180.354M455.181,303.3L604.938,128.149M604.938,516.27L754.696,341.119M604.938,355.505L455.181,303.3M754.696,180.354L604.938,128.149M455.181,303.3L455.181,464.065M604.938,516.27L455.181,464.065M754.696,407.582L754.696,568.347M904.453,232.431L904.453,393.196M754.696,407.582L904.453,232.431M604.938,355.377L754.696,180.226M754.696,568.347L904.453,393.196M754.696,407.582L604.938,355.377M904.453,232.431L754.696,180.226M604.938,355.377L604.938,516.142M754.696,568.347L604.938,516.142M904.453,459.777L904.453,620.542M1054.21,284.625L1054.21,445.39M904.453,459.777L1054.21,284.625M754.696,407.572L904.453,232.421M904.453,620.542L1054.21,445.39M904.453,459.777L754.696,407.572M1054.21,284.625L904.453,232.421M754.696,407.572L754.696,568.337M904.453,620.542L754.696,568.337M1053.72,511.814L1053.72,672.579M1203.48,336.663L1203.48,497.428M1053.72,511.814L1203.48,336.663M903.964,459.61L1053.72,284.458M1053.72,672.579L1203.48,497.428M1053.72,511.814L903.964,459.61M1203.48,336.663L1053.72,284.458M903.964,459.61L903.964,620.375M1053.72,672.579L903.964,620.375M1203.48,564.009L1203.48,724.774M1353.24,388.858L1353.24,549.623M1203.48,564.009L1353.24,388.858M1053.72,511.804L1203.48,336.653M1203.48,724.774L1353.24,549.623M1203.48,564.009L1053.72,511.804M1353.24,388.858L1203.48,336.653M1053.72,511.804L1053.72,672.569M1203.48,724.774L1053.72,672.569M1353.24,616.086L1353.24,776.851M1502.99,440.935L1502.99,601.7M1353.24,616.086L1502.99,440.935M1203.48,563.881L1353.24,388.73M1353.24,776.851L1502.99,601.7M1353.24,616.086L1203.48,563.881M1502.99,440.935L1353.24,388.73M1203.48,563.881L1203.48,724.646M1353.24,776.851L1203.48,724.646M1502.99,668.281L1502.99,829.046M1652.75,493.13L1652.75,653.895M1502.99,668.281L1652.75,493.13M1353.24,616.076L1502.99,440.925M1502.99,829.046L1652.75,653.895M1502.99,668.281L1353.24,616.076M1652.75,493.13L1502.99,440.925M1353.24,616.076L1353.24,776.841M1502.99,829.046L1353.24,776.841M1652.75,720.491L1652.75,881.255M1802.51,545.339L1802.51,706.104M1652.75,720.491L1802.51,545.339M1502.99,668.286L1652.75,493.135M1652.75,881.255L1802.51,706.104M1652.75,720.491L1502.99,668.286M1802.51,545.339L1652.75,493.135M1502.99,668.286L1502.99,829.051M1652.75,881.255L1502.99,829.051M1802.51,772.685L1802.51,933.45M1952.27,597.534L1952.27,758.299M1802.51,772.685L1952.27,597.534M1652.75,720.481L1802.51,545.329M1802.51,933.45L1952.27,758.299M1802.51,772.685L1652.75,720.481M1952.27,597.534L1802.51,545.329M1652.75,720.481L1652.75,881.245M1802.51,933.45L1652.75,881.245M1952.27,824.762L1952.27,985.527M2102.02,649.611L2102.02,810.376M1952.27,824.762L2102.02,649.611M1802.51,772.557L1952.27,597.406M1952.27,985.527L2102.02,810.376M1952.27,824.762L1802.51,772.557M2102.02,649.611L1952.27,597.406M1802.51,772.557L1802.51,933.322M1952.27,985.527L1802.51,933.322M2102.02,876.957L2102.02,1037.72M2251.78,701.806L2251.78,862.571M2102.02,876.957L2251.78,701.806M1952.27,824.752L2102.02,649.601M2102.02,1037.72L2251.78,862.571M2102.02,876.957L1952.27,824.752M2251.78,701.806L2102.02,649.601M1952.27,824.752L1952.27,985.517M2102.02,1037.72L1952.27,985.517M6.152,-80.366L6.152,80.399M155.909,-255.517L155.909,-94.752M6.152,-80.366L155.909,-255.517M-143.606,-132.571L6.152,-307.722M6.152,80.399L155.909,-94.752M6.152,-80.366L-143.606,-132.571M155.909,-255.517L6.152,-307.722M-143.606,-132.571L-143.606,28.194M6.152,80.399L-143.606,28.194M155.909,-28.171L155.909,132.594M305.666,-203.322L305.666,-42.557M155.909,-28.171L305.666,-203.322M6.152,-80.376L155.909,-255.527M155.909,132.594L305.666,-42.557M155.909,-28.171L6.152,-80.376M305.666,-203.322L155.909,-255.527M6.152,-80.376L6.152,80.389M155.909,132.594L6.152,80.389M305.666,23.906L305.666,184.671M455.424,-151.245L455.424,9.519M305.666,23.906L455.424,-151.245M155.909,-28.299L305.666,-203.45M305.666,184.671L455.424,9.519M305.666,23.906L155.909,-28.299M455.424,-151.245L305.666,-203.45M155.909,-28.299L155.909,132.466M305.666,184.671L155.909,132.466M455.424,76.1L455.424,236.865M605.181,-99.051L605.181,61.714M455.424,76.1L605.181,-99.051M305.666,23.896L455.424,-151.255M455.424,236.865L605.181,61.714M455.424,76.1L305.666,23.896M605.181,-99.051L455.424,-151.255M305.666,23.896L305.666,184.661M455.424,236.865L305.666,184.661M605.181,128.31L605.181,289.075M754.938,-46.841L754.938,113.924M605.181,128.31L754.938,-46.841M455.424,76.105L605.181,-99.046M605.181,289.075L754.938,113.924M605.181,128.31L455.424,76.105M754.938,-46.841L605.181,-99.046M455.424,76.105L455.424,236.87M605.181,289.075L455.424,236.87M754.938,180.505L754.938,341.27M904.696,5.354L904.696,166.119M754.938,180.505L904.696,5.354M605.181,128.3L754.938,-46.851M754.938,341.27L904.696,166.119M754.938,180.505L605.181,128.3M904.696,5.354L754.938,-46.851M605.181,128.3L605.181,289.065M754.938,341.27L605.181,289.065M904.696,232.582L904.696,393.347M1054.45,57.431L1054.45,218.196M904.696,232.582L1054.45,57.431M754.938,180.377L904.696,5.226M904.696,393.347L1054.45,218.196M904.696,232.582L754.938,180.377M1054.45,57.431L904.696,5.226M754.938,180.377L754.938,341.142M904.696,393.347L754.938,341.142M1054.45,284.777L1054.45,445.542M1204.21,109.625L1204.21,270.39M1054.45,284.777L1204.21,109.625M904.696,232.572L1054.45,57.421M1054.45,445.542L1204.21,270.39M1054.45,284.777L904.696,232.572M1204.21,109.625L1054.45,57.421M904.696,232.572L904.696,393.337M1054.45,445.542L904.696,393.337M1203.72,336.814L1203.72,497.579M1353.48,161.663L1353.48,322.428M1203.72,336.814L1353.48,161.663M1053.96,284.61L1203.72,109.458M1203.72,497.579L1353.48,322.428M1203.72,336.814L1053.96,284.61M1353.48,161.663L1203.72,109.458M1053.96,284.61L1053.96,445.375M1203.72,497.579L1053.96,445.375M1353.48,389.009L1353.48,549.774M1503.24,213.858L1503.24,374.623M1353.48,389.009L1503.24,213.858M1203.72,336.804L1353.48,161.653M1353.48,549.774L1503.24,374.623M1353.48,389.009L1203.72,336.804M1503.24,213.858L1353.48,161.653M1203.72,336.804L1203.72,497.569M1353.48,549.774L1203.72,497.569M1503.24,441.086L1503.24,601.851M1652.99,265.935L1652.99,426.7M1503.24,441.086L1652.99,265.935M1353.48,388.881L1503.24,213.73M1503.24,601.851L1652.99,426.7M1503.24,441.086L1353.48,388.881M1652.99,265.935L1503.24,213.73M1353.48,388.881L1353.48,549.646M1503.24,601.851L1353.48,549.646M1652.99,493.281L1652.99,654.046M1802.75,318.13L1802.75,478.895M1652.99,493.281L1802.75,318.13M1503.24,441.076L1652.99,265.925M1652.99,654.046L1802.75,478.895M1652.99,493.281L1503.24,441.076M1802.75,318.13L1652.99,265.925M1503.24,441.076L1503.24,601.841M1652.99,654.046L1503.24,601.841M1802.75,545.491L1802.75,706.255M1952.51,370.339L1952.51,531.104M1802.75,545.491L1952.51,370.339M1652.99,493.286L1802.75,318.135M1802.75,706.255L1952.51,531.104M1802.75,545.491L1652.99,493.286M1952.51,370.339L1802.75,318.135M1652.99,493.286L1652.99,654.051M1802.75,706.255L1652.99,654.051M1952.51,597.685L1952.51,758.45M2102.26,422.534L2102.26,583.299M1952.51,597.685L2102.26,422.534M1802.75,545.481L1952.51,370.329M1952.51,758.45L2102.26,583.299M1952.51,597.685L1802.75,545.481M2102.26,422.534L1952.51,370.329M1802.75,545.481L1802.75,706.245M1952.51,758.45L1802.75,706.245M2102.26,649.762L2102.26,810.527M2252.02,474.611L2252.02,635.376M2102.26,649.762L2252.02,474.611M1952.51,597.557L2102.26,422.406M2102.26,810.527L2252.02,635.376M2102.26,649.762L1952.51,597.557M2252.02,474.611L2102.26,422.406M1952.51,597.557L1952.51,758.322M2102.26,810.527L1952.51,758.322M2252.02,701.957L2252.02,862.722M2401.78,526.806L2401.78,687.571M2252.02,701.957L2401.78,526.806M2102.26,649.752L2252.02,474.601M2252.02,862.722L2401.78,687.571M2252.02,701.957L2102.26,649.752M2401.78,526.806L2252.02,474.601M2102.26,649.752L2102.26,810.517M2252.02,862.722L2102.26,810.517M155.757,-254.789L155.757,-94.024M305.515,-429.94L305.515,-269.175M155.757,-254.789L305.515,-429.94M6,-306.994L155.757,-482.145M155.757,-94.024L305.515,-269.175M155.757,-254.789L6,-306.994M305.515,-429.94L155.757,-482.145M6,-306.994L6,-146.229M155.757,-94.024L6,-146.229M305.515,-202.594L305.515,-41.829M455.272,-377.745L455.272,-216.98M305.515,-202.594L455.272,-377.745M155.757,-254.799L305.515,-429.95M305.515,-41.829L455.272,-216.98M305.515,-202.594L155.757,-254.799M455.272,-377.745L305.515,-429.95M155.757,-254.799L155.757,-94.034M305.515,-41.829L155.757,-94.034M455.272,-150.517L455.272,10.248M605.029,-325.668L605.029,-164.903M455.272,-150.517L605.029,-325.668M305.515,-202.722L455.272,-377.873M455.272,10.248L605.029,-164.903M455.272,-150.517L305.515,-202.722M605.029,-325.668L455.272,-377.873M305.515,-202.722L305.515,-41.957M455.272,10.248L305.515,-41.957M605.029,-98.322L605.029,62.442M754.787,-273.474L754.787,-112.709M605.029,-98.322L754.787,-273.474M455.272,-150.527L605.029,-325.678M605.029,62.442L754.787,-112.709M605.029,-98.322L455.272,-150.527M754.787,-273.474L605.029,-325.678M455.272,-150.527L455.272,10.238M605.029,62.442L455.272,10.238M754.787,-46.113L754.787,114.652M904.544,-221.264L904.544,-60.499M754.787,-46.113L904.544,-221.264M605.029,-98.318L754.787,-273.469M754.787,114.652L904.544,-60.499M754.787,-46.113L605.029,-98.318M904.544,-221.264L754.787,-273.469M605.029,-98.318L605.029,62.447M754.787,114.652L605.029,62.447M904.544,6.082L904.544,166.847M1054.3,-169.069L1054.3,-8.304M904.544,6.082L1054.3,-169.069M754.787,-46.123L904.544,-221.274M904.544,166.847L1054.3,-8.304M904.544,6.082L754.787,-46.123M1054.3,-169.069L904.544,-221.274M754.787,-46.123L754.787,114.642M904.544,166.847L754.787,114.642M1054.3,58.159L1054.3,218.924M1204.06,-116.992L1204.06,43.773M1054.3,58.159L1204.06,-116.992M904.544,5.954L1054.3,-169.197M1054.3,218.924L1204.06,43.773M1054.3,58.159L904.544,5.954M1204.06,-116.992L1054.3,-169.197M904.544,5.954L904.544,166.719M1054.3,218.924L904.544,166.719M1204.06,110.354L1204.06,271.119M1353.82,-64.797L1353.82,95.967M1204.06,110.354L1353.82,-64.797M1054.3,58.149L1204.06,-117.002M1204.06,271.119L1353.82,95.967M1204.06,110.354L1054.3,58.149M1353.82,-64.797L1204.06,-117.002M1054.3,58.149L1054.3,218.914M1204.06,271.119L1054.3,218.914M1353.33,162.391L1353.33,323.156M1503.08,-12.76L1503.08,148.005M1353.33,162.391L1503.08,-12.76M1203.57,110.187L1353.33,-64.964M1353.33,323.156L1503.08,148.005M1353.33,162.391L1203.57,110.187M1503.08,-12.76L1353.33,-64.964M1203.57,110.187L1203.57,270.952M1353.33,323.156L1203.57,270.952M1503.08,214.586L1503.08,375.351M1652.84,39.435L1652.84,200.2M1503.08,214.586L1652.84,39.435M1353.33,162.381L1503.08,-12.77M1503.08,375.351L1652.84,200.2M1503.08,214.586L1353.33,162.381M1652.84,39.435L1503.08,-12.77M1353.33,162.381L1353.33,323.146M1503.08,375.351L1353.33,323.146M1652.84,266.663L1652.84,427.428M1802.6,91.512L1802.6,252.277M1652.84,266.663L1802.6,91.512M1503.08,214.458L1652.84,39.307M1652.84,427.428L1802.6,252.277M1652.84,266.663L1503.08,214.458M1802.6,91.512L1652.84,39.307M1503.08,214.458L1503.08,375.223M1652.84,427.428L1503.08,375.223M1802.6,318.858L1802.6,479.623M1952.36,143.707L1952.36,304.472M1802.6,318.858L1952.36,143.707M1652.84,266.653L1802.6,91.502M1802.6,479.623L1952.36,304.472M1802.6,318.858L1652.84,266.653M1952.36,143.707L1802.6,91.502M1652.84,266.653L1652.84,427.418M1802.6,479.623L1652.84,427.418M1952.36,371.068L1952.36,531.833M2102.11,195.916L2102.11,356.681M1952.36,371.068L2102.11,195.916M1802.6,318.863L1952.36,143.712M1952.36,531.833L2102.11,356.681M1952.36,371.068L1802.6,318.863M2102.11,195.916L1952.36,143.712M1802.6,318.863L1802.6,479.628M1952.36,531.833L1802.6,479.628M2102.11,423.262L2102.11,584.027M2251.87,248.111L2251.87,408.876M2102.11,423.262L2251.87,248.111M1952.36,371.058L2102.11,195.906M2102.11,584.027L2251.87,408.876M2102.11,423.262L1952.36,371.058M2251.87,248.111L2102.11,195.906M1952.36,371.058L1952.36,531.823M2102.11,584.027L1952.36,531.823M2251.87,475.339L2251.87,636.104M2401.63,300.188L2401.63,460.953M2251.87,475.339L2401.63,300.188M2102.11,423.134L2251.87,247.983M2251.87,636.104L2401.63,460.953M2251.87,475.339L2102.11,423.134M2401.63,300.188L2251.87,247.983M2102.11,423.134L2102.11,583.899M2251.87,636.104L2102.11,583.899M2401.63,527.534L2401.63,688.299M2551.39,352.383L2551.39,513.148M2401.63,527.534L2551.39,352.383M2251.87,475.329L2401.63,300.178M2401.63,688.299L2551.39,513.148M2401.63,527.534L2251.87,475.329M2551.39,352.383L2401.63,300.178M2251.87,475.329L2251.87,636.094M2401.63,688.299L2251.87,636.094M305.757,-429.789L305.757,-269.024M455.515,-604.94L455.515,-444.175M305.757,-429.789L455.515,-604.94M156,-481.994L305.757,-657.145M305.757,-269.024L455.515,-444.175M305.757,-429.789L156,-481.994M455.515,-604.94L305.757,-657.145M156,-481.994L156,-321.229M305.757,-269.024L156,-321.229M455.515,-377.594L455.515,-216.829M605.272,-552.745L605.272,-391.98M455.515,-377.594L605.272,-552.745M305.757,-429.799L455.515,-604.95M455.515,-216.829L605.272,-391.98M455.515,-377.594L305.757,-429.799M605.272,-552.745L455.515,-604.95M305.757,-429.799L305.757,-269.034M455.515,-216.829L305.757,-269.034M605.272,-325.517L605.272,-164.752M755.029,-500.668L755.029,-339.903M605.272,-325.517L755.029,-500.668M455.515,-377.722L605.272,-552.873M605.272,-164.752L755.029,-339.903M605.272,-325.517L455.515,-377.722M755.029,-500.668L605.272,-552.873M455.515,-377.722L455.515,-216.957M605.272,-164.752L455.515,-216.957M755.029,-273.322L755.029,-112.558M904.787,-448.474L904.787,-287.709M755.029,-273.322L904.787,-448.474M605.272,-325.527L755.029,-500.678M755.029,-112.558L904.787,-287.709M755.029,-273.322L605.272,-325.527M904.787,-448.474L755.029,-500.678M605.272,-325.527L605.272,-164.762M755.029,-112.558L605.272,-164.762M904.787,-221.113L904.787,-60.348M1054.54,-396.264L1054.54,-235.499M904.787,-221.113L1054.54,-396.264M755.029,-273.318L904.787,-448.469M904.787,-60.348L1054.54,-235.499M904.787,-221.113L755.029,-273.318M1054.54,-396.264L904.787,-448.469M755.029,-273.318L755.029,-112.553M904.787,-60.348L755.029,-112.553M1054.54,-168.918L1054.54,-8.153M1204.3,-344.069L1204.3,-183.304M1054.54,-168.918L1204.3,-344.069M904.787,-221.123L1054.54,-396.274M1054.54,-8.153L1204.3,-183.304M1054.54,-168.918L904.787,-221.123M1204.3,-344.069L1054.54,-396.274M904.787,-221.123L904.787,-60.358M1054.54,-8.153L904.787,-60.358M1204.3,-116.841L1204.3,43.924M1354.06,-291.992L1354.06,-131.227M1204.3,-116.841L1354.06,-291.992M1054.54,-169.046L1204.3,-344.197M1204.3,43.924L1354.06,-131.227M1204.3,-116.841L1054.54,-169.046M1354.06,-291.992L1204.3,-344.197M1054.54,-169.046L1054.54,-8.281M1204.3,43.924L1054.54,-8.281M1354.06,-64.646L1354.06,96.119M1503.82,-239.797L1503.82,-79.033M1354.06,-64.646L1503.82,-239.797M1204.3,-116.851L1354.06,-292.002M1354.06,96.119L1503.82,-79.033M1354.06,-64.646L1204.3,-116.851M1503.82,-239.797L1354.06,-292.002M1204.3,-116.851L1204.3,43.914M1354.06,96.119L1204.3,43.914M1503.33,-12.609L1503.33,148.156M1653.08,-187.76L1653.08,-26.995M1503.33,-12.609L1653.08,-187.76M1353.57,-64.813L1503.33,-239.964M1503.33,148.156L1653.08,-26.995M1503.33,-12.609L1353.57,-64.813M1653.08,-187.76L1503.33,-239.964M1353.57,-64.813L1353.57,95.952M1503.33,148.156L1353.57,95.952M1653.08,39.586L1653.08,200.351M1802.84,-135.565L1802.84,25.2M1653.08,39.586L1802.84,-135.565M1503.33,-12.619L1653.08,-187.77M1653.08,200.351L1802.84,25.2M1653.08,39.586L1503.33,-12.619M1802.84,-135.565L1653.08,-187.77M1503.33,-12.619L1503.33,148.146M1653.08,200.351L1503.33,148.146M1802.84,91.663L1802.84,252.428M1952.6,-83.488L1952.6,77.277M1802.84,91.663L1952.6,-83.488M1653.08,39.458L1802.84,-135.693M1802.84,252.428L1952.6,77.277M1802.84,91.663L1653.08,39.458M1952.6,-83.488L1802.84,-135.693M1653.08,39.458L1653.08,200.223M1802.84,252.428L1653.08,200.223M1952.6,143.858L1952.6,304.623M2102.36,-31.293L2102.36,129.472M1952.6,143.858L2102.36,-31.293M1802.84,91.653L1952.6,-83.498M1952.6,304.623L2102.36,129.472M1952.6,143.858L1802.84,91.653M2102.36,-31.293L1952.6,-83.498M1802.84,91.653L1802.84,252.418M1952.6,304.623L1802.84,252.418M2102.36,196.068L2102.36,356.833M2252.11,20.916L2252.11,181.681M2102.36,196.068L2252.11,20.916M1952.6,143.863L2102.36,-31.288M2102.36,356.833L2252.11,181.681M2102.36,196.068L1952.6,143.863M2252.11,20.916L2102.36,-31.288M1952.6,143.863L1952.6,304.628M2102.36,356.833L1952.6,304.628M2252.11,248.262L2252.11,409.027M2401.87,73.111L2401.87,233.876M2252.11,248.262L2401.87,73.111M2102.36,196.058L2252.11,20.906M2252.11,409.027L2401.87,233.876M2252.11,248.262L2102.36,196.058M2401.87,73.111L2252.11,20.906M2102.36,196.058L2102.36,356.823M2252.11,409.027L2102.36,356.823M2401.87,300.339L2401.87,461.104M2551.63,125.188L2551.63,285.953M2401.87,300.339L2551.63,125.188M2252.11,248.134L2401.87,72.983M2401.87,461.104L2551.63,285.953M2401.87,300.339L2252.11,248.134M2551.63,125.188L2401.87,72.983M2252.11,248.134L2252.11,408.899M2401.87,461.104L2252.11,408.899M2551.63,352.534L2551.63,513.299M2701.39,177.383L2701.39,338.148M2551.63,352.534L2701.39,177.383M2401.87,300.329L2551.63,125.178M2551.63,513.299L2701.39,338.148M2551.63,352.534L2401.87,300.329M2701.39,177.383L2551.63,125.178M2401.87,300.329L2401.87,461.094M2551.63,513.299L2401.87,461.094M455.757,-604.789L455.757,-444.024M605.515,-779.94L605.515,-619.175M455.757,-604.789L605.515,-779.94M306,-656.994L455.757,-832.145M455.757,-444.024L605.515,-619.175M455.757,-604.789L306,-656.994M605.515,-779.94L455.757,-832.145M306,-656.994L306,-496.229M455.757,-444.024L306,-496.229M605.515,-552.594L605.515,-391.829M755.272,-727.745L755.272,-566.98M605.515,-552.594L755.272,-727.745M455.757,-604.799L605.515,-779.95M605.515,-391.829L755.272,-566.98M605.515,-552.594L455.757,-604.799M755.272,-727.745L605.515,-779.95M455.757,-604.799L455.757,-444.034M605.515,-391.829L455.757,-444.034M755.272,-500.517L755.272,-339.752M905.029,-675.668L905.029,-514.903M755.272,-500.517L905.029,-675.668M605.515,-552.722L755.272,-727.873M755.272,-339.752L905.029,-514.903M755.272,-500.517L605.515,-552.722M905.029,-675.668L755.272,-727.873M605.515,-552.722L605.515,-391.957M755.272,-339.752L605.515,-391.957M905.029,-448.322L905.029,-287.558M1054.79,-623.474L1054.79,-462.709M905.029,-448.322L1054.79,-623.474M755.272,-500.527L905.029,-675.678M905.029,-287.558L1054.79,-462.709M905.029,-448.322L755.272,-500.527M1054.79,-623.474L905.029,-675.678M755.272,-500.527L755.272,-339.762M905.029,-287.558L755.272,-339.762M1054.79,-396.113L1054.79,-235.348M1204.54,-571.264L1204.54,-410.499M1054.79,-396.113L1204.54,-571.264M905.029,-448.318L1054.79,-623.469M1054.79,-235.348L1204.54,-410.499M1054.79,-396.113L905.029,-448.318M1204.54,-571.264L1054.79,-623.469M905.029,-448.318L905.029,-287.553M1054.79,-235.348L905.029,-287.553M1204.54,-343.918L1204.54,-183.153M1354.3,-519.069L1354.3,-358.304M1204.54,-343.918L1354.3,-519.069M1054.79,-396.123L1204.54,-571.274M1204.54,-183.153L1354.3,-358.304M1204.54,-343.918L1054.79,-396.123M1354.3,-519.069L1204.54,-571.274M1054.79,-396.123L1054.79,-235.358M1204.54,-183.153L1054.79,-235.358M1354.3,-291.841L1354.3,-131.076M1504.06,-466.992L1504.06,-306.227M1354.3,-291.841L1504.06,-466.992M1204.54,-344.046L1354.3,-519.197M1354.3,-131.076L1504.06,-306.227M1354.3,-291.841L1204.54,-344.046M1504.06,-466.992L1354.3,-519.197M1204.54,-344.046L1204.54,-183.281M1354.3,-131.076L1204.54,-183.281M1504.06,-239.646L1504.06,-78.881M1653.82,-414.797L1653.82,-254.033M1504.06,-239.646L1653.82,-414.797M1354.3,-291.851L1504.06,-467.002M1504.06,-78.881L1653.82,-254.033M1504.06,-239.646L1354.3,-291.851M1653.82,-414.797L1504.06,-467.002M1354.3,-291.851L1354.3,-131.086M1504.06,-78.881L1354.3,-131.086M1653.33,-187.609L1653.33,-26.844M1803.08,-362.76L1803.08,-201.995M1653.33,-187.609L1803.08,-362.76M1503.57,-239.813L1653.33,-414.964M1653.33,-26.844L1803.08,-201.995M1653.33,-187.609L1503.57,-239.813M1803.08,-362.76L1653.33,-414.964M1503.57,-239.813L1503.57,-79.048M1653.33,-26.844L1503.57,-79.048M1803.08,-135.414L1803.08,25.351M1952.84,-310.565L1952.84,-149.8M1803.08,-135.414L1952.84,-310.565M1653.33,-187.619L1803.08,-362.77M1803.08,25.351L1952.84,-149.8M1803.08,-135.414L1653.33,-187.619M1952.84,-310.565L1803.08,-362.77M1653.33,-187.619L1653.33,-26.854M1803.08,25.351L1653.33,-26.854M1952.84,-83.337L1952.84,77.428M2102.6,-258.488L2102.6,-97.723M1952.84,-83.337L2102.6,-258.488M1803.08,-135.542L1952.84,-310.693M1952.84,77.428L2102.6,-97.723M1952.84,-83.337L1803.08,-135.542M2102.6,-258.488L1952.84,-310.693M1803.08,-135.542L1803.08,25.223M1952.84,77.428L1803.08,25.223M2102.6,-31.142L2102.6,129.623M2252.36,-206.293L2252.36,-45.528M2102.6,-31.142L2252.36,-206.293M1952.84,-83.347L2102.6,-258.498M2102.6,129.623L2252.36,-45.528M2102.6,-31.142L1952.84,-83.347M2252.36,-206.293L2102.6,-258.498M1952.84,-83.347L1952.84,77.418M2102.6,129.623L1952.84,77.418M2252.36,21.068L2252.36,181.833M2402.11,-154.084L2402.11,6.681M2252.36,21.068L2402.11,-154.084M2102.6,-31.137L2252.36,-206.288M2252.36,181.833L2402.11,6.681M2252.36,21.068L2102.6,-31.137M2402.11,-154.084L2252.36,-206.288M2102.6,-31.137L2102.6,129.628M2252.36,181.833L2102.6,129.628M2402.11,73.262L2402.11,234.027M2551.87,-101.889L2551.87,58.876M2402.11,73.262L2551.87,-101.889M2252.36,21.058L2402.11,-154.094M2402.11,234.027L2551.87,58.876M2402.11,73.262L2252.36,21.058M2551.87,-101.889L2402.11,-154.094M2252.36,21.058L2252.36,181.823M2402.11,234.027L2252.36,181.823M2551.87,125.339L2551.87,286.104M2701.63,-49.812L2701.63,110.953M2551.87,125.339L2701.63,-49.812M2402.11,73.134L2551.87,-102.017M2551.87,286.104L2701.63,110.953M2551.87,125.339L2402.11,73.134M2701.63,-49.812L2551.87,-102.017M2402.11,73.134L2402.11,233.899M2551.87,286.104L2402.11,233.899M2701.63,177.534L2701.63,338.299M2851.39,2.383L2851.39,163.148M2701.63,177.534L2851.39,2.383M2551.87,125.329L2701.63,-49.822M2701.63,338.299L2851.39,163.148M2701.63,177.534L2551.87,125.329M2851.39,2.383L2701.63,-49.822M2551.87,125.329L2551.87,286.094M2701.63,338.299L2551.87,286.094M605.757,-779.789L605.757,-619.024M755.515,-954.94L755.515,-794.175M605.757,-779.789L755.515,-954.94M456,-831.994L605.757,-1007.14M605.757,-619.024L755.515,-794.175M605.757,-779.789L456,-831.994M755.515,-954.94L605.757,-1007.14M456,-831.994L456,-671.229M605.757,-619.024L456,-671.229M755.515,-727.594L755.515,-566.829M905.272,-902.745L905.272,-741.98M755.515,-727.594L905.272,-902.745M605.757,-779.799L755.515,-954.95M755.515,-566.829L905.272,-741.98M755.515,-727.594L605.757,-779.799M905.272,-902.745L755.515,-954.95M605.757,-779.799L605.757,-619.034M755.515,-566.829L605.757,-619.034M905.272,-675.517L905.272,-514.752M1055.03,-850.668L1055.03,-689.903M905.272,-675.517L1055.03,-850.668M755.515,-727.722L905.272,-902.873M905.272,-514.752L1055.03,-689.903M905.272,-675.517L755.515,-727.722M1055.03,-850.668L905.272,-902.873M755.515,-727.722L755.515,-566.957M905.272,-514.752L755.515,-566.957M1055.03,-623.322L1055.03,-462.558M1204.79,-798.474L1204.79,-637.709M1055.03,-623.322L1204.79,-798.474M905.272,-675.527L1055.03,-850.678M1055.03,-462.558L1204.79,-637.709M1055.03,-623.322L905.272,-675.527M1204.79,-798.474L1055.03,-850.678M905.272,-675.527L905.272,-514.762M1055.03,-462.558L905.272,-514.762M1204.79,-571.113L1204.79,-410.348M1354.54,-746.264L1354.54,-585.499M1204.79,-571.113L1354.54,-746.264M1055.03,-623.318L1204.79,-798.469M1204.79,-410.348L1354.54,-585.499M1204.79,-571.113L1055.03,-623.318M1354.54,-746.264L1204.79,-798.469M1055.03,-623.318L1055.03,-462.553M1204.79,-410.348L1055.03,-462.553M1354.54,-518.918L1354.54,-358.153M1504.3,-694.069L1504.3,-533.304M1354.54,-518.918L1504.3,-694.069M1204.79,-571.123L1354.54,-746.274M1354.54,-358.153L1504.3,-533.304M1354.54,-518.918L1204.79,-571.123M1504.3,-694.069L1354.54,-746.274M1204.79,-571.123L1204.79,-410.358M1354.54,-358.153L1204.79,-410.358M1504.3,-466.841L1504.3,-306.076M1654.06,-641.992L1654.06,-481.227M1504.3,-466.841L1654.06,-641.992M1354.54,-519.046L1504.3,-694.197M1504.3,-306.076L1654.06,-481.227M1504.3,-466.841L1354.54,-519.046M1654.06,-641.992L1504.3,-694.197M1354.54,-519.046L1354.54,-358.281M1504.3,-306.076L1354.54,-358.281M1654.06,-414.646L1654.06,-253.881M1803.82,-589.797L1803.82,-429.033M1654.06,-414.646L1803.82,-589.797M1504.3,-466.851L1654.06,-642.002M1654.06,-253.881L1803.82,-429.033M1654.06,-414.646L1504.3,-466.851M1803.82,-589.797L1654.06,-642.002M1504.3,-466.851L1504.3,-306.086M1654.06,-253.881L1504.3,-306.086M1803.33,-362.609L1803.33,-201.844M1953.08,-537.76L1953.08,-376.995M1803.33,-362.609L1953.08,-537.76M1653.57,-414.813L1803.33,-589.964M1803.33,-201.844L1953.08,-376.995M1803.33,-362.609L1653.57,-414.813M1953.08,-537.76L1803.33,-589.964M1653.57,-414.813L1653.57,-254.048M1803.33,-201.844L1653.57,-254.048M1953.08,-310.414L1953.08,-149.649M2102.84,-485.565L2102.84,-324.8M1953.08,-310.414L2102.84,-485.565M1803.33,-362.619L1953.08,-537.77M1953.08,-149.649L2102.84,-324.8M1953.08,-310.414L1803.33,-362.619M2102.84,-485.565L1953.08,-537.77M1803.33,-362.619L1803.33,-201.854M1953.08,-149.649L1803.33,-201.854M2102.84,-258.337L2102.84,-97.572M2252.6,-433.488L2252.6,-272.723M2102.84,-258.337L2252.6,-433.488M1953.08,-310.542L2102.84,-485.693M2102.84,-97.572L2252.6,-272.723M2102.84,-258.337L1953.08,-310.542M2252.6,-433.488L2102.84,-485.693M1953.08,-310.542L1953.08,-149.777M2102.84,-97.572L1953.08,-149.777M2252.6,-206.142L2252.6,-45.377M2402.36,-381.293L2402.36,-220.528M2252.6,-206.142L2402.36,-381.293M2102.84,-258.347L2252.6,-433.498M2252.6,-45.377L2402.36,-220.528M2252.6,-206.142L2102.84,-258.347M2402.36,-381.293L2252.6,-433.498M2102.84,-258.347L2102.84,-97.582M2252.6,-45.377L2102.84,-97.582M2402.36,-153.932L2402.36,6.833M2552.11,-329.084L2552.11,-168.319M2402.36,-153.932L2552.11,-329.084M2252.6,-206.137L2402.36,-381.288M2402.36,6.833L2552.11,-168.319M2402.36,-153.932L2252.6,-206.137M2552.11,-329.084L2402.36,-381.288M2252.6,-206.137L2252.6,-45.372M2402.36,6.833L2252.6,-45.372M2552.11,-101.738L2552.11,59.027M2701.87,-276.889L2701.87,-116.124M2552.11,-101.738L2701.87,-276.889M2402.36,-153.942L2552.11,-329.094M2552.11,59.027L2701.87,-116.124M2552.11,-101.738L2402.36,-153.942M2701.87,-276.889L2552.11,-329.094M2402.36,-153.942L2402.36,6.823M2552.11,59.027L2402.36,6.823M2701.87,-49.661L2701.87,111.104M2851.63,-224.812L2851.63,-64.047M2701.87,-49.661L2851.63,-224.812M2552.11,-101.866L2701.87,-277.017M2701.87,111.104L2851.63,-64.047M2701.87,-49.661L2552.11,-101.866M2851.63,-224.812L2701.87,-277.017M2552.11,-101.866L2552.11,58.899M2701.87,111.104L2552.11,58.899M2851.63,2.534L2851.63,163.299M3001.39,-172.617L3001.39,-11.852M2851.63,2.534L3001.39,-172.617M2701.87,-49.671L2851.63,-224.822M2851.63,163.299L3001.39,-11.852M2851.63,2.534L2701.87,-49.671M3001.39,-172.617L2851.63,-224.822M2701.87,-49.671L2701.87,111.094M2851.63,163.299L2701.87,111.094" style="fill:none;stroke:rgb(121,0,197);stroke-opacity:0.44;stroke-width:7.46px;"/>
    </g>
    <g transform="matrix(0.492215,0,0,0.492215,678.378,274.204)">
        <path d="M480.946,403.751L480.827,489.521L367.204,489.521L367.204,197.529L484.698,197.529L484.698,264.574L480.449,264.574L480.449,319.089L442.602,319.089L418.373,401.806L480.449,401.62L480.449,403.751L480.946,403.751Z" style="fill:white;fill-opacity:0.5;stroke:rgb(54,0,87);stroke-width:2.03px;"/>
        <g transform="matrix(2.05396,0,0,2.05396,-396.812,-569.139)">
            <path d="M427.108,432.447L408.682,432.447L407.843,435.309L400.745,435.293L412.35,373.264L540,373.264L540.229,659.769C540.229,659.769 540.602,705.259 496.665,706.736L414.001,706.736C414.001,706.736 374.198,707.803 372.084,663.821L371.973,514.476L427.293,514.476L427.108,648.528L473.331,648.529L473.323,473.666L473.33,473.666L473.33,472.673L503.632,472.671L492.381,432.447L473.33,432.447L473.33,405.906L427.108,405.906L427.108,432.447ZM451.661,691.363L457.309,691.363L457.309,663.13L451.661,663.13L451.661,691.363ZM449.947,663.13L444.377,663.13L442.196,673.06L440.093,663.13L434.484,663.13L438.34,676.643L434.329,691.363L440.054,691.363L442.196,681.433L444.377,691.363L450.103,691.363L446.091,676.643L449.947,663.13ZM459.762,691.363L465.41,691.363L465.41,663.13L459.762,663.13L459.762,691.363Z" style="fill:white;"/>
        </g>
    </g>
</svg>
